<svg xmlns="http://www.w3.org/2000/svg" viewBox="0 0 1200 224" width="1200" height="224" role="img" aria-label="Observer, construire, mesurer">
<defs>
  <linearGradient id="bg" x1="0" y1="0" x2="1" y2="1"><stop offset="0" stop-color="#0D1117"/><stop offset="1" stop-color="#131922"/></linearGradient>
  <linearGradient id="brand" x1="0" y1="0" x2="1" y2="0"><stop offset="0" stop-color="#0F6CBD"/><stop offset=".55" stop-color="#7FBA00"/><stop offset="1" stop-color="#FFB900"/></linearGradient>
  <filter id="blur" x="-50%" y="-50%" width="200%" height="200%"><feGaussianBlur stdDeviation="70"/></filter>
  <filter id="shadow" x="-10%" y="-10%" width="120%" height="130%"><feDropShadow dx="0" dy="2" stdDeviation="6" flood-color="rgba(0,0,0,.35)"/></filter>
</defs>

<g ><animate attributeName="opacity" values="0;0;1" keyTimes="0;0.067;1" dur="0.75s" fill="freeze" calcMode="spline" keySplines="0 0 1 1;.16 1 .3 1"/>
<rect x="0.0" y="12" width="372" height="200" rx="8" fill="#161B22" stroke="#2A313C" filter="url(#shadow)"/>
<text x="352.0" y="42" text-anchor="end" font-family="'Segoe UI Variable','Segoe UI',system-ui,-apple-system,Roboto,Helvetica,Arial,sans-serif" font-size="12" font-weight="600" fill="#8B949E" letter-spacing="1.5">01</text>
<circle cx="44.0" cy="56" r="22" fill="#12283A"/>
<g transform="translate(32.0,44.0) scale(1.000)" fill="none" stroke="#4CC2FF" stroke-width="1.75" stroke-linecap="round" stroke-linejoin="round"><circle cx="11" cy="11" r="8"/><path d="m21 21-4.3-4.3"/></g>
<text x="24.0" y="112" font-family="'Segoe UI Variable','Segoe UI',system-ui,-apple-system,Roboto,Helvetica,Arial,sans-serif" font-size="19" font-weight="600" fill="#F0F3F6">Observer</text>
<text x="24.0" y="138" font-family="'Segoe UI Variable','Segoe UI',system-ui,-apple-system,Roboto,Helvetica,Arial,sans-serif" font-size="13.5" fill="#B6BEC9">Audit du poste de travail.</text>
<text x="24.0" y="158" font-family="'Segoe UI Variable','Segoe UI',system-ui,-apple-system,Roboto,Helvetica,Arial,sans-serif" font-size="13.5" fill="#B6BEC9">Cartographier ce qui est répétitif</text>
<text x="24.0" y="178" font-family="'Segoe UI Variable','Segoe UI',system-ui,-apple-system,Roboto,Helvetica,Arial,sans-serif" font-size="13.5" fill="#B6BEC9">ou source d&#x27;erreurs.</text>
</g>
<g ><animate attributeName="opacity" values="0;0;1" keyTimes="0;0.195;1" dur="0.87s" fill="freeze" calcMode="spline" keySplines="0 0 1 1;.16 1 .3 1"/><g transform="translate(383.0,102.0) scale(0.833)" fill="none" stroke="#8B949E" stroke-width="2" stroke-linecap="round" stroke-linejoin="round"><path d="M5 12h14"/><path d="m12 5 7 7-7 7"/></g></g>
<g ><animate attributeName="opacity" values="0;0;1" keyTimes="0;0.195;1" dur="0.87s" fill="freeze" calcMode="spline" keySplines="0 0 1 1;.16 1 .3 1"/>
<rect x="414.0" y="12" width="372" height="200" rx="8" fill="#161B22" stroke="#2A313C" filter="url(#shadow)"/>
<text x="766.0" y="42" text-anchor="end" font-family="'Segoe UI Variable','Segoe UI',system-ui,-apple-system,Roboto,Helvetica,Arial,sans-serif" font-size="12" font-weight="600" fill="#8B949E" letter-spacing="1.5">02</text>
<circle cx="458.0" cy="56" r="22" fill="#12283A"/>
<g transform="translate(446.0,44.0) scale(1.000)" fill="none" stroke="#4CC2FF" stroke-width="1.75" stroke-linecap="round" stroke-linejoin="round"><path d="M14.7 6.3a1 1 0 0 0 0 1.4l1.6 1.6a1 1 0 0 0 1.4 0l3.77-3.77a6 6 0 0 1-7.94 7.94l-6.91 6.91a2.12 2.12 0 0 1-3-3l6.91-6.91a6 6 0 0 1 7.94-7.94l-3.76 3.76z"/></g>
<text x="438.0" y="112" font-family="'Segoe UI Variable','Segoe UI',system-ui,-apple-system,Roboto,Helvetica,Arial,sans-serif" font-size="19" font-weight="600" fill="#F0F3F6">Construire</text>
<text x="438.0" y="138" font-family="'Segoe UI Variable','Segoe UI',system-ui,-apple-system,Roboto,Helvetica,Arial,sans-serif" font-size="13.5" fill="#B6BEC9">Déployer un outil existant quand</text>
<text x="438.0" y="158" font-family="'Segoe UI Variable','Segoe UI',system-ui,-apple-system,Roboto,Helvetica,Arial,sans-serif" font-size="13.5" fill="#B6BEC9">il suffit. Développer quand</text>
<text x="438.0" y="178" font-family="'Segoe UI Variable','Segoe UI',system-ui,-apple-system,Roboto,Helvetica,Arial,sans-serif" font-size="13.5" fill="#B6BEC9">il n&#x27;existe pas.</text>
</g>
<g ><animate attributeName="opacity" values="0;0;1" keyTimes="0;0.293;1" dur="0.99s" fill="freeze" calcMode="spline" keySplines="0 0 1 1;.16 1 .3 1"/><g transform="translate(797.0,102.0) scale(0.833)" fill="none" stroke="#8B949E" stroke-width="2" stroke-linecap="round" stroke-linejoin="round"><path d="M5 12h14"/><path d="m12 5 7 7-7 7"/></g></g>
<g ><animate attributeName="opacity" values="0;0;1" keyTimes="0;0.293;1" dur="0.99s" fill="freeze" calcMode="spline" keySplines="0 0 1 1;.16 1 .3 1"/>
<rect x="828.0" y="12" width="372" height="200" rx="8" fill="#161B22" stroke="#2A313C" filter="url(#shadow)"/>
<text x="1180.0" y="42" text-anchor="end" font-family="'Segoe UI Variable','Segoe UI',system-ui,-apple-system,Roboto,Helvetica,Arial,sans-serif" font-size="12" font-weight="600" fill="#8B949E" letter-spacing="1.5">03</text>
<circle cx="872.0" cy="56" r="22" fill="#12283A"/>
<g transform="translate(860.0,44.0) scale(1.000)" fill="none" stroke="#4CC2FF" stroke-width="1.75" stroke-linecap="round" stroke-linejoin="round"><path d="M3 3v18h18"/><path d="M18 17V9"/><path d="M13 17V5"/><path d="M8 17v-3"/></g>
<text x="852.0" y="112" font-family="'Segoe UI Variable','Segoe UI',system-ui,-apple-system,Roboto,Helvetica,Arial,sans-serif" font-size="19" font-weight="600" fill="#F0F3F6">Mesurer</text>
<text x="852.0" y="138" font-family="'Segoe UI Variable','Segoe UI',system-ui,-apple-system,Roboto,Helvetica,Arial,sans-serif" font-size="13.5" fill="#B6BEC9">Temps de traitement avant / après.</text>
<text x="852.0" y="158" font-family="'Segoe UI Variable','Segoe UI',system-ui,-apple-system,Roboto,Helvetica,Arial,sans-serif" font-size="13.5" fill="#B6BEC9">Sans gain mesurable,</text>
<text x="852.0" y="178" font-family="'Segoe UI Variable','Segoe UI',system-ui,-apple-system,Roboto,Helvetica,Arial,sans-serif" font-size="13.5" fill="#B6BEC9">pas de mission.</text>
</g>
</svg>